0
SECTION
2
HEADER
9
$INSUNITS
70
4
0
ENDSEC
0
SECTION
2
TABLES
0
TABLE
2
LTYPE
0
LTYPE
72
65
70
64
2
CONTINUOUS
3
______
73
0
40
0
0
ENDTAB
0
TABLE
2
LAYER
0
ENDTAB
0
ENDSEC
0
SECTION
2
ENTITIES
0
LINE
8
0
10
76.5
20
-107.5
11
76.5
21
-37
0
LINE
8
0
10
79.5
20
-34
11
175.5
21
-34
0
LINE
8
0
10
178.5
20
-37
11
178.5
21
-107.5
0
LINE
8
0
10
175.5
20
-110.5
11
79.5
21
-110.5
0
ARC
8
0
10
79.5
20
-37
40
3
50
90
51
180
0
ARC
8
0
10
175.5
20
-37
40
3
50
0
51
90
0
ARC
8
0
10
175.5
20
-107.5
40
3
50
270
51
0
0
ARC
8
0
10
79.5
20
-107.5
40
3
50
180
51
270
0
ENDSEC
0
EOF